<?xml version="1.0" encoding="UTF-8" standalone="no"?>
<svg
   xmlns:sketch="http://www.bohemiancoding.com/sketch/ns"
   xmlns:dc="http://purl.org/dc/elements/1.1/"
   xmlns:cc="http://creativecommons.org/ns#"
   xmlns:rdf="http://www.w3.org/1999/02/22-rdf-syntax-ns#"
   xmlns:svg="http://www.w3.org/2000/svg"
   xmlns="http://www.w3.org/2000/svg"
   xmlns:sodipodi="http://sodipodi.sourceforge.net/DTD/sodipodi-0.dtd"
   xmlns:inkscape="http://www.inkscape.org/namespaces/inkscape"
   width="129px"
   height="79px"
   viewBox="0 0 129 79"
   version="1.1"
   id="svg3501"
   inkscape:version="0.48.4 r9939"
   sodipodi:docname="SHRM_Logo_NoLegal_clean.svg">
  <metadata
     id="metadata3573">
    <rdf:RDF>
      <cc:Work
         rdf:about="">
        <dc:format>image/svg+xml</dc:format>
        <dc:type
           rdf:resource="http://purl.org/dc/dcmitype/StillImage" />
        <dc:title>SHRM logo for SHRM.org_RGB</dc:title>
      </cc:Work>
    </rdf:RDF>
  </metadata>
  <sodipodi:namedview
     pagecolor="#ffffff"
     bordercolor="#666666"
     borderopacity="1"
     objecttolerance="10"
     gridtolerance="10"
     guidetolerance="10"
     inkscape:pageopacity="0"
     inkscape:pageshadow="2"
     inkscape:window-width="1920"
     inkscape:window-height="1056"
     id="namedview3571"
     showgrid="false"
     inkscape:zoom="4.9457364"
     inkscape:cx="132.97421"
     inkscape:cy="41.641828"
     inkscape:window-x="0"
     inkscape:window-y="24"
     inkscape:window-maximized="1"
     inkscape:current-layer="Page-1" />
  <!-- Generator: Sketch 3.5.2 (25235) - http://www.bohemiancoding.com/sketch -->
  <title
     id="title3503">SHRM logo for SHRM.org_RGB</title>
  <desc
     id="desc3505">Created with Sketch.</desc>
  <defs
     id="defs3507">
    <path
       id="path-1"
       d="M0.072972973,1.02666667 L128.084595,1.02666667 L128.084595,79.9272727 L0.072972973,79.9272727" />
    <path
       id="path-3"
       d="M0.072972973,1.02666667 L128.084595,1.02666667 L128.084595,79.9272727 L0.072972973,79.9272727" />
    <path
       id="path-5"
       d="M0.072972973,1.02666667 L128.084595,1.02666667 L128.084595,79.9272727 L0.072972973,79.9272727" />
  </defs>
  <g
     id="Page-1"
     stroke-width="1"
     stroke="none"
     fill-rule="evenodd"
     fill="none">
    <g
       id="Cover"
       transform="translate(-386.000000, -188.000000)">
      <g
         id="Digital-Brand-Guidel-2016-REDESIGN-SHRM-Logo"
         transform="translate(386.000000, 187.000000)">
        <g
           id="SHRM-logo-for-SHRM.org_RGB">
          <path
             d="m 0.07297297,1.0266667 37.96905403,0 0,52.9478783 -37.96905403,0 0,-52.9478783 z"
             id="Fill-1"
             inkscape:connector-curvature="0"
             style="fill:#6987ad" />
          <path
             d="m 85.195946,1.0266667 42.888644,0 0,52.9478783 -42.888644,0 0,-52.9478783 z"
             id="Fill-3"
             inkscape:connector-curvature="0"
             style="fill:#6987ad" />
          <path
             d="m 38.040811,1.0266667 47.156351,0 0,52.9503033 -47.156351,0 0,-52.9503033 z"
             id="Fill-4"
             inkscape:connector-curvature="0"
             style="fill:#1a4d81" />
          <path
             d="m 66.475946,25.724848 -1.707568,0 0,-13.54303 3.416352,0 c 3.998919,0 5.745405,1.486061 5.745405,6.300606 0,6.797576 -2.873919,7.242424 -7.454189,7.242424 l 0,0 z M 79.005405,42.991515 C 78.085946,42.49697 77.837838,40.261818 77.963108,37.88 78.336487,30.043636 75.087973,27.961212 70.300946,26.521212 l 0,-0.100606 c 3.912568,-0.395152 8.704459,-1.637576 8.704459,-8.13697 0,-2.233939 -1.207702,-7.242424 -9.20554,-7.242424 l -12.631622,0 0,1.140606 2.993108,0 0,13.561212 -11.427567,0 0,-13.561212 2.935946,0 0,-1.140606 -10.538514,0 0,1.140606 2.996757,0 0,30.860606 -2.996757,0 0,1.139394 10.538514,0 0,-1.139394 -2.935946,0 0,-16.17697 11.427567,0 0,16.17697 -2.993108,0 0,1.139394 10.88027,0 0,-1.139394 -3.280135,0 0,-16.173333 1.956892,0 c 5.247973,0 5.623784,3.718788 5.832973,6.003636 0.290676,2.974546 0.541216,6.99394 0.747973,7.886061 0.542433,2.333333 2.742568,4.218182 5.699189,4.167273 1.082433,-0.04727 2.288919,-0.347879 3.707027,-0.938182 l 0,-1.243637 c -1.377973,0.596364 -2.917702,0.894546 -3.707027,0.247273 l 0,0 z"
             id="Fill-5"
             inkscape:connector-curvature="0"
             style="fill:#ffffff" />
          <path
             d="m 118.64311,12.305455 3.34459,0 0,-1.238788 -9.21892,0 -7.18297,24.72606 -7.078378,-24.72606 -9.204324,0 0,1.238788 3.360405,0 0,30.724848 -3.360405,0 0,1.130909 8.129189,0 0,-1.130909 -3.322702,0 0,-29.881212 0.09365,0 9.009727,31.012121 1.54338,0 9.05595,-31.012121 0.13865,0 0,29.881212 -3.33609,0 0,1.130909 11.37284,0 0,-1.130909 -3.34459,0 0,-30.724848"
             id="Fill-6"
             inkscape:connector-curvature="0"
             style="fill:#ffffff" />
          <path
             d="m 11.580811,42.113939 c 2.084594,1.563637 5.661486,2.49091 8.456351,2.49091 7.684054,0 12.632838,-4.501819 12.632838,-10.015758 0,-4.276364 -2.586892,-7.452121 -8.642432,-9.252121 -2.268244,-0.675152 -4.545,-1.277576 -6.109055,-1.758788 -3.618243,-1.11394 -6.573648,-2.498182 -6.573648,-6.255758 0,-3.271515 3.570811,-5.56606 7.384865,-5.56606 5.954594,0 9.647027,3.856969 10.303784,8.495757 l 1.903378,0 0,-9.227879 -1.07027,0 -2.262163,1.95394 c -2.740135,-1.757576 -5.243108,-2.442424 -8.694729,-2.442424 -6.196622,0 -10.8413516,3.807272 -10.8413516,8.934545 0,4.635151 3.2704056,7.250909 8.8090536,8.61697 1.193108,0.293333 2.378919,0.656969 3.575676,0.978182 5.420676,1.448484 8.877162,2.944242 8.877162,7.484848 0,4.004848 -4.167973,6.833939 -8.874729,6.833939 -6.313379,0 -9.709054,-4.294545 -10.9581086,-8.930909 l -1.7282432,0 0,9.710303 1.0131081,0 2.7985137,-2.049697"
             id="Fill-7"
             inkscape:connector-curvature="0"
             style="fill:#ffffff" />
          <path
             d="m 39.148784,59.309091 0.0012,7.906667 -0.561892,0 0.0049,-7.883637"
             id="Fill-8"
             inkscape:connector-curvature="0"
             style="fill:#1a4d81" />
          <path
             d="m 38.573513,59.313939 -3.192567,0.0036 0,-0.501818 6.906892,0 0,0.501818 -3.139054,-0.0085"
             id="Fill-9"
             inkscape:connector-curvature="0"
             style="fill:#1a4d81" />
          <path
             d="M 4.7906757,60.208485 C 4.3722973,59.607273 3.7775676,59.220606 2.897027,59.220606 c -1.0045946,0 -1.7586486,0.72 -1.7586486,1.6 0,0.878788 0.9291892,1.244849 1.6856757,1.569697 l 1.7817567,0.831515 c 0.7078378,0.4 1.0654054,0.911515 1.0654054,1.667879 0,1.389091 -1.412027,2.433939 -2.9225676,2.433939 -1.3001351,0 -2.31567563,-0.72 -2.7486486,-1.797575 l 0.51810811,-0.213334 c 0.3977027,0.888485 1.12986489,1.512728 2.25729729,1.512728 1.2247297,0 2.2998649,-0.867879 2.2998649,-1.980607 0,-0.94303 -1.0751352,-1.344242 -1.8802703,-1.700606 L 1.5093243,62.341818 C 0.8927027,61.998788 0.54364865,61.509091 0.54364865,60.841212 0.54364865,59.598788 1.5336486,58.72 2.9347297,58.72 3.8760811,58.72 4.77,59.17697 5.2139189,59.898182 l -0.4232432,0.310303"
             id="Fill-11"
             inkscape:connector-curvature="0"
             style="fill:#1a4d81" />
          <path
             d="m 7.3325676,63.02303 c 0,2.066667 1.7452702,3.802425 3.8566214,3.802425 2.101622,0 3.859054,-1.747879 3.859054,-3.802425 0,-2.070303 -1.757432,-3.802424 -3.859054,-3.802424 -2.1113512,0 -3.8566214,1.732121 -3.8566214,3.802424 l 0,0 z m 8.2544594,0 c 0,2.357576 -2.012838,4.300606 -4.397838,4.300606 -2.3825674,0 -4.3978377,-1.94303 -4.3978377,-4.300606 0,-2.357575 2.0043244,-4.30303 4.3978377,-4.30303 2.385,0 4.397838,1.945455 4.397838,4.30303 l 0,0 z"
             id="Fill-13"
             inkscape:connector-curvature="0"
             style="fill:#1a4d81" />
          <path
             d="m 23.929054,60.54303 c -0.654324,-0.789091 -1.802432,-1.322424 -2.848378,-1.322424 -2.111352,0 -3.85419,1.801212 -3.85419,3.858182 0,0.97697 0.426892,1.900606 1.135946,2.589091 0.706622,0.669091 1.716081,1.157576 2.718244,1.157576 0.98027,0 2.215946,-0.526061 2.848378,-1.278788 l 0,0.732121 c -0.801486,0.655757 -1.778108,1.044848 -2.82527,1.044848 -2.360676,0 -4.417298,-1.94303 -4.417298,-4.290909 0,-2.380606 2.026217,-4.312727 4.428244,-4.312727 1.024054,0 2.057838,0.4 2.814324,1.088485 l 0,0.734545"
             id="Fill-14"
             inkscape:connector-curvature="0"
             style="fill:#1a4d81" />
          <path
             d="m 26.092703,67.213333 0.591081,0.0097 0,-8.392727 -0.580135,-0.01454 -0.01095,8.397575"
             id="Fill-15"
             inkscape:connector-curvature="0"
             style="fill:#1a4d81" />
          <path
             d="m 29.852027,59.327273 0,3.049697 4.026892,0 0,0.499394 -4.026892,0 0,3.837575 4.132703,0 0,0.499394 -4.766352,0 0,-8.38303 4.766352,0 0,0.49697 -4.132703,0"
             id="Fill-16"
             inkscape:connector-curvature="0"
             style="fill:#1a4d81" />
          <path
             d="m 43.293649,58.830303 0.671351,0 2.810676,4.248485 2.811892,-4.248485 0.672567,0 -3.176757,4.804848 0,3.578182 -0.611756,0 0,-3.578182 -3.177973,-4.804848"
             id="Fill-17"
             inkscape:connector-curvature="0"
             style="fill:#1a4d81" />
          <path
             d="m 56.398378,59.327273 0,3.049697 3.289865,0 0,0.499394 -3.289865,0 0,4.336969 -0.634864,0 0,-8.38303 4.017162,0 0,0.49697 -3.382298,0"
             id="Fill-18"
             inkscape:connector-curvature="0"
             style="fill:#1a4d81" />
          <path
             d="m 61.466351,63.02303 c 0,2.066667 1.740406,3.802425 3.856622,3.802425 2.101622,0 3.856622,-1.747879 3.856622,-3.802425 0,-2.070303 -1.755,-3.802424 -3.856622,-3.802424 -2.116216,0 -3.856622,1.732121 -3.856622,3.802424 l 0,0 z m 8.250811,0 c 0,2.357576 -2.011622,4.300606 -4.394189,4.300606 -2.386216,0 -4.397838,-1.94303 -4.397838,-4.300606 0,-2.357575 2.000676,-4.30303 4.397838,-4.30303 2.382567,0 4.394189,1.945455 4.394189,4.30303 l 0,0 z"
             id="Fill-19"
             inkscape:connector-curvature="0"
             style="fill:#1a4d81" />
          <path
             d="m 72.622703,62.744242 c 0.598378,0 1.194324,-0.02182 1.678378,-0.387878 0.458514,-0.323637 0.676216,-0.823031 0.676216,-1.323637 0,-0.62303 -0.333243,-1.244848 -1.020405,-1.512727 -0.507162,-0.213333 -1.161487,-0.192727 -1.717297,-0.192727 l -0.396487,0 0,3.416969 0.779595,0 0,0 z m 3.357973,4.469091 -0.699325,0 -3.132973,-3.970909 -0.30527,0 0,3.970909 -0.61054,0 0,-8.38303 1.196756,0 c 0.777162,0 1.540946,0.01212 2.190406,0.421818 0.689594,0.42303 0.969324,1.092121 0.969324,1.801212 0,1.458182 -1.16027,2.213334 -2.749865,2.189091 l 3.141487,3.970909 0,0 z"
             id="Fill-20"
             inkscape:connector-curvature="0"
             style="fill:#1a4d81" />
          <path
             d="m 88.567297,62.390303 0,-3.56 0.608108,0 0,8.38303 -0.608108,0 0,-4.323636 -5.787973,0 0,4.323636 -0.604459,0 0,-8.38303 0.604459,0 0,3.56 5.787973,0"
             id="Fill-21"
             inkscape:connector-curvature="0"
             style="fill:#1a4d81" />
          <path
             d="m 97.251081,58.830303 0.599595,0 0,5.225455 c 0,0.858181 0,1.591515 -0.638514,2.293333 -0.633649,0.642424 -1.605405,0.974545 -2.551622,0.974545 -0.951081,0 -1.920405,-0.332121 -2.557702,-0.974545 -0.632433,-0.701818 -0.632433,-1.435152 -0.632433,-2.293333 l 0,-5.225455 0.597163,0 0,5.071515 c 0,0.752727 0,1.555152 0.48527,2.111515 0.458513,0.532122 1.382838,0.812122 2.107702,0.812122 0.721217,0 1.647974,-0.28 2.105271,-0.812122 0.48527,-0.556363 0.48527,-1.358788 0.48527,-2.111515 l 0,-5.071515"
             id="Fill-22"
             inkscape:connector-curvature="0"
             style="fill:#1a4d81" />
          <path
             d="m 107.71176,60.276364 -0.0243,0 -3.05878,7.215757 -3.0527,-7.215757 -0.0207,0 -1.50081,6.936969 -0.535136,0 1.882706,-8.66303 3.22662,7.627879 3.23513,-7.627879 1.88636,8.66303 -0.53271,0 -1.50567,-6.936969"
             id="Fill-23"
             inkscape:connector-curvature="0"
             style="fill:#1a4d81" />
          <path
             d="m 114.65878,59.909091 -1.78662,4.04606 3.5623,0 -1.77568,-4.04606 0,0 z m -2.00432,4.545454 -1.21743,2.758788 -0.59352,0 3.81527,-8.66303 3.80068,8.66303 -0.58986,0 -1.21744,-2.758788 -3.9977,0 0,0 z"
             id="Fill-24"
             inkscape:connector-curvature="0"
             style="fill:#1a4d81" />
          <path
             d="m 66.872432,72.318788 -1.526351,4.092121 3.041757,0 -1.515406,-4.092121 0,0 z m -1.711216,4.596363 -1.039865,2.790304 -0.505946,0 3.257027,-8.761213 3.243649,8.761213 -0.503513,0 -1.038649,-2.790304 -3.412703,0 0,0 z"
             id="Fill-25"
             inkscape:connector-curvature="0"
             style="fill:#1a4d81" />
          <path
             d="m 127.51176,67.492121 -7.2073,-7.483636 0,7.204848 -0.55216,0 0,-8.493333 7.21216,7.427879 0,-7.317576 0.5473,0 0,8.661818"
             id="Fill-26"
             inkscape:connector-curvature="0"
             style="fill:#1a4d81" />
          <path
             d="m 1.485,75.179394 c 0.5035135,0 1.0058108,-0.02303 1.4132432,-0.395152 C 3.285,74.45697 3.465,73.950303 3.465,73.442424 3.465,72.810909 3.1877027,72.180606 2.6087838,71.909091 2.1818919,71.694546 1.6345946,71.718788 1.1651351,71.718788 l -0.33202699,0 0,3.460606 0.65189189,0 0,0 z m 2.8264865,4.530909 -0.5898649,0 -2.6318919,-4.02303 -0.25662159,0 0,4.02303 -0.51567568,0 0,-8.500606 1.00581077,0 c 0.6543244,0 1.2952703,0.01333 1.8437838,0.429091 0.5764865,0.430303 0.8124325,1.106666 0.8124325,1.826667 0,1.477575 -0.9754054,2.243636 -2.3108109,2.221818 l 2.6428379,4.02303 0,0 z"
             id="Fill-27"
             inkscape:connector-curvature="0"
             style="fill:#1a4d81" />
          <path
             d="m 5.9412162,71.718788 0,3.088485 3.2558108,0 0,0.505454 -3.2558108,0 0,3.890909 3.340946,0 0,0.506667 -3.852973,0 0,-8.500606 3.852973,0 0,0.509091 -3.340946,0"
             id="Fill-28"
             inkscape:connector-curvature="0"
             style="fill:#1a4d81" />
          <path
             d="m 10.634595,73.250909 c 0,0.653333 0.280946,1.169697 0.839189,1.532121 l 1.457027,0.812121 0.145946,0.07394 c 0.65554,0.33697 1.472838,0.751515 1.472838,1.64 0,1.100606 -0.887838,1.998788 -1.98,1.998788 -1.121352,0 -1.673514,-0.832728 -1.935,-1.528485 -0.01703,-0.0073 -0.464595,0.207273 -0.464595,0.207273 0.378243,1.145454 1.29527,1.849697 2.378919,1.849697 1.376757,0 2.535811,-1.13697 2.535811,-2.481212 0,-0.740606 -0.291892,-1.28 -0.925541,-1.701819 l -1.540946,-0.844848 -0.06203,-0.0303 c -0.650675,-0.324849 -1.387702,-0.695758 -1.387702,-1.550303 0,-0.90303 0.662837,-1.614546 1.51054,-1.614546 0.692027,0 1.225946,0.329697 1.628514,1 l 0.0036,0.01212 0.374595,-0.327273 c -0.381892,-0.740606 -1.159054,-1.213333 -1.976352,-1.213333 -1.221081,0 -2.074864,0.890909 -2.074864,2.16606"
             id="Fill-29"
             inkscape:connector-curvature="0"
             style="fill:#1a4d81" />
          <path
             d="m 16.544189,75.460606 c 0,2.098182 1.661352,3.855758 3.672973,3.855758 2.000676,0 3.671757,-1.770909 3.671757,-3.855758 0,-2.098182 -1.671081,-3.855757 -3.671757,-3.855757 -2.011621,0 -3.672973,1.757575 -3.672973,3.855757 l 0,0 z m 7.855541,0 c 0,2.387879 -1.914325,4.362424 -4.182568,4.362424 -2.268243,0 -4.186216,-1.974545 -4.186216,-4.362424 0,-2.387879 1.908243,-4.363636 4.186216,-4.363636 2.268243,0 4.182568,1.975757 4.182568,4.363636 l 0,0 z"
             id="Fill-30"
             inkscape:connector-curvature="0"
             style="fill:#1a4d81" />
          <path
             d="m 30.570811,71.209697 0.513243,0 0,5.301818 c 0,0.866667 0,1.609697 -0.543649,2.32 -0.547297,0.655758 -1.381621,0.991515 -2.192837,0.991515 -0.816082,0 -1.651622,-0.335757 -2.195271,-0.991515 -0.546081,-0.710303 -0.546081,-1.453333 -0.546081,-2.32 l 0,-5.301818 0.512027,0 0,5.141818 c 0,0.766061 0,1.578182 0.418379,2.140606 0.39527,0.541818 1.18581,0.824243 1.810946,0.824243 0.616621,0 1.409594,-0.282425 1.806081,-0.824243 0.417162,-0.562424 0.417162,-1.374545 0.417162,-2.140606 l 0,-5.141818"
             id="Fill-31"
             inkscape:connector-curvature="0"
             style="fill:#1a4d81" />
          <path
             d="m 33.82054,75.179394 c 0.547298,0 1.094595,-0.02303 1.536082,-0.395152 0.419594,-0.327272 0.617838,-0.833939 0.617838,-1.341818 0,-0.631515 -0.304055,-1.261818 -0.931622,-1.533333 -0.467027,-0.214545 -1.058108,-0.190303 -1.571352,-0.190303 l -0.358783,0 0,3.460606 0.707837,0 0,0 z m 3.072163,4.530909 -0.638514,0 -2.864189,-4.02303 -0.277297,0 0,4.02303 -0.560676,0 0,-8.500606 1.094595,0 c 0.711486,0 1.408378,0.01333 2.001891,0.429091 0.628784,0.430303 0.881757,1.106666 0.881757,1.826667 0,1.477575 -1.056892,2.243636 -2.509054,2.221818 l 2.871487,4.02303 0,0 z"
             id="Fill-32"
             inkscape:connector-curvature="0"
             style="fill:#1a4d81" />
          <path
             d="m 44.169324,72.946667 c -0.62027,-0.802425 -1.713648,-1.341818 -2.709729,-1.341818 -2.010406,0 -3.671757,1.825454 -3.671757,3.910303 0,0.996363 0.409865,1.929697 1.082432,2.626666 0.672568,0.678788 1.637027,1.174546 2.589325,1.174546 0.930405,0 2.108919,-0.529697 2.709729,-1.294546 l 0,0.738182 c -0.758919,0.667879 -1.692973,1.06303 -2.687837,1.06303 -2.247568,0 -4.206892,-1.974545 -4.206892,-4.350303 0,-2.412121 1.928918,-4.375757 4.216621,-4.375757 0.975406,0 1.960541,0.40606 2.678108,1.105454 l 0,0.744243"
             id="Fill-33"
             inkscape:connector-curvature="0"
             style="fill:#1a4d81" />
          <path
             d="m 77.808649,79.991515 -6.295135,-7.586667 0,7.305455 -0.475541,0 0,-8.613333 6.29027,7.528485 0,-7.415758 0.480406,0 0,8.781818"
             id="Fill-36"
             inkscape:connector-curvature="0"
             style="fill:#1a4d81" />
          <path
             d="m 46.241757,71.718788 0,3.088485 3.837162,0 0,0.505454 -3.837162,0 0,3.890909 3.939324,0 0,0.506667 -4.546216,0 0,-8.500606 4.546216,0 0,0.509091 -3.939324,0"
             id="Fill-34"
             inkscape:connector-curvature="0"
             style="fill:#1a4d81" />
          <path
             d="m 82.027703,72.304242 -1.527568,4.105455 3.047838,0 -1.52027,-4.105455 0,0 z m -1.713649,4.610909 -1.042297,2.795152 -0.505946,0 3.261892,-8.781818 3.253378,8.781818 -0.503513,0 -1.045946,-2.795152 -3.417568,0 0,0 z"
             id="Fill-38"
             inkscape:connector-curvature="0"
             style="fill:#1a4d81" />
          <path
             d="m 93.366486,75.619394 c 0.01703,1.071515 -0.121621,2.004848 -0.792972,2.827879 -0.72,0.881212 -1.807298,1.375757 -2.871487,1.375757 -2.096757,0 -3.885811,-1.984242 -3.885811,-4.328485 0,-2.433939 1.780541,-4.397575 3.946622,-4.397575 1.374324,0 2.488378,0.768484 3.285,1.984242 l -0.394054,0.349091 c -0.671352,-1.126061 -1.696622,-1.825454 -2.920135,-1.825454 -1.849865,0 -3.434595,1.813333 -3.434595,3.855757 0,2.098182 1.547027,3.855758 3.434595,3.855758 0.814864,0 1.602973,-0.372122 2.225675,-0.934546 0.655541,-0.620606 0.895136,-1.332121 0.925541,-2.25697 l -2.710946,0 0,-0.505454 3.192567,0"
             id="Fill-39"
             inkscape:connector-curvature="0"
             style="fill:#1a4d81" />
          <path
             d="m 107.35054,72.676364 -0.017,0 -2.66108,7.315151 -2.64527,-7.315151 -0.0255,0 -1.30013,7.033939 -0.46825,0 1.63825,-8.781818 2.80094,7.732121 2.80946,-7.732121 1.63703,8.781818 -0.4646,0 -1.30378,-7.033939"
             id="Fill-42"
             inkscape:connector-curvature="0"
             style="fill:#1a4d81" />
          <path
             d="m 110.76324,71.718788 0,3.088485 3.25703,0 0,0.505454 -3.25703,0 0,3.890909 3.33973,0 0,0.506667 -3.85175,0 0,-8.500606 3.85175,0 0,0.509091 -3.33973,0"
             id="Fill-43"
             inkscape:connector-curvature="0"
             style="fill:#1a4d81" />
          <path
             d="m 122.2127,79.991515 -6.22946,-7.586667 0,7.305455 -0.47554,0 0,-8.613333 6.23311,7.528485 0,-7.415758 0.47189,0 0,8.781818"
             id="Fill-44"
             inkscape:connector-curvature="0"
             style="fill:#1a4d81" />
          <path
             d="m 125.83946,79.710303 -0.51324,0 0,-7.991515 -2.08703,0 0,-0.509091 4.68973,0 0,0.509091 -2.08946,0 0,7.991515"
             id="Fill-45"
             inkscape:connector-curvature="0"
             style="fill:#1a4d81" />
          <path
             d="m 61.116081,72.683636 -0.02068,0 L 58.436757,80 l -2.647703,-7.316364 -0.02189,0 -1.303784,7.035152 -0.468243,0 1.640676,-8.78303 2.800946,7.735757 2.807027,-7.735757 1.640675,8.78303 -0.464594,0 -1.303784,-7.035152"
             id="Fill-46"
             inkscape:connector-curvature="0"
             style="fill:#1a4d81" />
          <path
             d="m 95.85,71.718788 0,3.088485 3.252162,0 0,0.505454 -3.252162,0 0,3.890909 3.33973,0 0,0.506667 -3.849325,0 0,-8.500606 3.849325,0 0,0.509091 -3.33973,0"
             id="Fill-40"
             inkscape:connector-curvature="0"
             style="fill:#1a4d81" />
        </g>
      </g>
    </g>
  </g>
</svg>
